<svg width="70" height="70" viewBox="0 0 70 70" fill="none" xmlns="http://www.w3.org/2000/svg">
<path d="M13.7083 51.6253C10.7916 48.417 9.04163 44.917 9.04163 39.0837C9.04163 28.8753 16.3333 19.8337 26.5416 15.167L29.1666 18.9587C19.5416 24.2087 17.5 30.917 16.9166 35.292C18.375 34.417 20.4166 34.1253 22.4583 34.417C27.7083 35.0003 31.7916 39.0837 31.7916 44.6253C31.7916 47.2503 30.625 49.8753 28.875 51.917C26.8333 53.9587 24.5 54.8337 21.5833 54.8337C18.375 54.8337 15.4583 53.3753 13.7083 51.6253ZM42.875 51.6253C39.9583 48.417 38.2083 44.917 38.2083 39.0837C38.2083 28.8753 45.5 19.8337 55.7083 15.167L58.3333 18.9587C48.7083 24.2087 46.6666 30.917 46.0833 35.292C47.5416 34.417 49.5833 34.1253 51.625 34.417C56.875 35.0003 60.9583 39.0837 60.9583 44.6253C60.9583 47.2503 59.7916 49.8753 58.0416 51.917C56.2916 53.9587 53.6666 54.8337 50.75 54.8337C47.5416 54.8337 44.625 53.3753 42.875 51.6253Z" fill="#1D191F"/>
</svg>
